<mxfile host="app.diagrams.net" modified="2023-03-26T12:28:51.666Z" agent="Mozilla/5.0 (Windows NT 10.0; Win64; x64) AppleWebKit/537.36 (KHTML, like Gecko) Chrome/111.0.0.0 Safari/537.36" etag="cYfN7u5ReiDO85OtOTPZ" version="21.1.1" type="github">
  <diagram name="Page-1" id="I2diGHP10F4gkZ_NdI2N">
    <mxGraphModel dx="794" dy="459" grid="1" gridSize="10" guides="1" tooltips="1" connect="1" arrows="1" fold="1" page="1" pageScale="1" pageWidth="827" pageHeight="1169" math="0" shadow="0">
      <root>
        <mxCell id="0" />
        <mxCell id="1" parent="0" />
        <mxCell id="qdHmDOOyC_FSIgch7ug1-21" style="edgeStyle=orthogonalEdgeStyle;rounded=0;orthogonalLoop=1;jettySize=auto;html=1;entryX=0;entryY=0.5;entryDx=0;entryDy=0;" edge="1" parent="1" source="qdHmDOOyC_FSIgch7ug1-1" target="qdHmDOOyC_FSIgch7ug1-9">
          <mxGeometry relative="1" as="geometry" />
        </mxCell>
        <mxCell id="qdHmDOOyC_FSIgch7ug1-22" style="edgeStyle=orthogonalEdgeStyle;rounded=0;orthogonalLoop=1;jettySize=auto;html=1;" edge="1" parent="1" source="qdHmDOOyC_FSIgch7ug1-1" target="qdHmDOOyC_FSIgch7ug1-10">
          <mxGeometry relative="1" as="geometry" />
        </mxCell>
        <mxCell id="qdHmDOOyC_FSIgch7ug1-23" style="edgeStyle=orthogonalEdgeStyle;rounded=0;orthogonalLoop=1;jettySize=auto;html=1;entryX=0;entryY=0.5;entryDx=0;entryDy=0;" edge="1" parent="1" source="qdHmDOOyC_FSIgch7ug1-1" target="qdHmDOOyC_FSIgch7ug1-11">
          <mxGeometry relative="1" as="geometry" />
        </mxCell>
        <mxCell id="qdHmDOOyC_FSIgch7ug1-24" style="edgeStyle=orthogonalEdgeStyle;rounded=0;orthogonalLoop=1;jettySize=auto;html=1;entryX=0;entryY=0.5;entryDx=0;entryDy=0;" edge="1" parent="1" source="qdHmDOOyC_FSIgch7ug1-1" target="qdHmDOOyC_FSIgch7ug1-12">
          <mxGeometry relative="1" as="geometry" />
        </mxCell>
        <mxCell id="qdHmDOOyC_FSIgch7ug1-25" style="edgeStyle=orthogonalEdgeStyle;rounded=0;orthogonalLoop=1;jettySize=auto;html=1;entryX=0;entryY=0.5;entryDx=0;entryDy=0;" edge="1" parent="1" source="qdHmDOOyC_FSIgch7ug1-1" target="qdHmDOOyC_FSIgch7ug1-13">
          <mxGeometry relative="1" as="geometry" />
        </mxCell>
        <mxCell id="qdHmDOOyC_FSIgch7ug1-26" style="edgeStyle=orthogonalEdgeStyle;rounded=0;orthogonalLoop=1;jettySize=auto;html=1;entryX=0;entryY=0.75;entryDx=0;entryDy=0;" edge="1" parent="1" source="qdHmDOOyC_FSIgch7ug1-1" target="qdHmDOOyC_FSIgch7ug1-14">
          <mxGeometry relative="1" as="geometry" />
        </mxCell>
        <mxCell id="qdHmDOOyC_FSIgch7ug1-1" value="" style="swimlane;startSize=0;" vertex="1" parent="1">
          <mxGeometry x="314" y="150" width="200" height="200" as="geometry" />
        </mxCell>
        <mxCell id="qdHmDOOyC_FSIgch7ug1-27" value="Collections - One Tallyman &lt;br&gt;System" style="text;html=1;align=center;verticalAlign=middle;resizable=0;points=[];autosize=1;strokeColor=none;fillColor=none;" vertex="1" parent="qdHmDOOyC_FSIgch7ug1-1">
          <mxGeometry x="15" y="20" width="170" height="40" as="geometry" />
        </mxCell>
        <mxCell id="qdHmDOOyC_FSIgch7ug1-28" value="ODS" style="ellipse;whiteSpace=wrap;html=1;" vertex="1" parent="qdHmDOOyC_FSIgch7ug1-1">
          <mxGeometry x="15" y="75" width="80" height="50" as="geometry" />
        </mxCell>
        <mxCell id="qdHmDOOyC_FSIgch7ug1-30" value="Teradata" style="ellipse;whiteSpace=wrap;html=1;" vertex="1" parent="qdHmDOOyC_FSIgch7ug1-1">
          <mxGeometry x="105" y="70" width="80" height="50" as="geometry" />
        </mxCell>
        <mxCell id="qdHmDOOyC_FSIgch7ug1-31" value="HDFS" style="ellipse;whiteSpace=wrap;html=1;" vertex="1" parent="qdHmDOOyC_FSIgch7ug1-1">
          <mxGeometry x="15" y="140" width="80" height="50" as="geometry" />
        </mxCell>
        <mxCell id="qdHmDOOyC_FSIgch7ug1-32" value="AWS - RDS" style="ellipse;whiteSpace=wrap;html=1;" vertex="1" parent="qdHmDOOyC_FSIgch7ug1-1">
          <mxGeometry x="105" y="140" width="80" height="50" as="geometry" />
        </mxCell>
        <mxCell id="qdHmDOOyC_FSIgch7ug1-15" style="edgeStyle=orthogonalEdgeStyle;rounded=0;orthogonalLoop=1;jettySize=auto;html=1;entryX=0;entryY=0.5;entryDx=0;entryDy=0;" edge="1" parent="1" source="qdHmDOOyC_FSIgch7ug1-5" target="qdHmDOOyC_FSIgch7ug1-1">
          <mxGeometry relative="1" as="geometry" />
        </mxCell>
        <mxCell id="qdHmDOOyC_FSIgch7ug1-5" value="New Accounts Prcs" style="shape=process;whiteSpace=wrap;html=1;backgroundOutline=1;" vertex="1" parent="1">
          <mxGeometry x="100" y="30" width="120" height="60" as="geometry" />
        </mxCell>
        <mxCell id="qdHmDOOyC_FSIgch7ug1-20" style="edgeStyle=orthogonalEdgeStyle;rounded=0;orthogonalLoop=1;jettySize=auto;html=1;entryX=0;entryY=0.5;entryDx=0;entryDy=0;" edge="1" parent="1" source="qdHmDOOyC_FSIgch7ug1-6" target="qdHmDOOyC_FSIgch7ug1-1">
          <mxGeometry relative="1" as="geometry" />
        </mxCell>
        <mxCell id="qdHmDOOyC_FSIgch7ug1-6" value="Update Accounts Prcs" style="shape=process;whiteSpace=wrap;html=1;backgroundOutline=1;" vertex="1" parent="1">
          <mxGeometry x="100" y="160" width="120" height="60" as="geometry" />
        </mxCell>
        <mxCell id="qdHmDOOyC_FSIgch7ug1-17" style="edgeStyle=orthogonalEdgeStyle;rounded=0;orthogonalLoop=1;jettySize=auto;html=1;entryX=0;entryY=0.5;entryDx=0;entryDy=0;" edge="1" parent="1" source="qdHmDOOyC_FSIgch7ug1-7" target="qdHmDOOyC_FSIgch7ug1-1">
          <mxGeometry relative="1" as="geometry" />
        </mxCell>
        <mxCell id="qdHmDOOyC_FSIgch7ug1-7" value="All Accounts &lt;br&gt;BBC" style="shape=process;whiteSpace=wrap;html=1;backgroundOutline=1;" vertex="1" parent="1">
          <mxGeometry x="100" y="280" width="120" height="60" as="geometry" />
        </mxCell>
        <mxCell id="qdHmDOOyC_FSIgch7ug1-19" style="edgeStyle=orthogonalEdgeStyle;rounded=0;orthogonalLoop=1;jettySize=auto;html=1;entryX=0;entryY=0.5;entryDx=0;entryDy=0;" edge="1" parent="1" source="qdHmDOOyC_FSIgch7ug1-8" target="qdHmDOOyC_FSIgch7ug1-1">
          <mxGeometry relative="1" as="geometry" />
        </mxCell>
        <mxCell id="qdHmDOOyC_FSIgch7ug1-8" value="Securities" style="shape=process;whiteSpace=wrap;html=1;backgroundOutline=1;" vertex="1" parent="1">
          <mxGeometry x="100" y="410" width="120" height="60" as="geometry" />
        </mxCell>
        <mxCell id="qdHmDOOyC_FSIgch7ug1-9" value="Customer Systems" style="shape=process;whiteSpace=wrap;html=1;backgroundOutline=1;" vertex="1" parent="1">
          <mxGeometry x="620" y="10" width="120" height="60" as="geometry" />
        </mxCell>
        <mxCell id="qdHmDOOyC_FSIgch7ug1-10" value="UK Branching Account Systems" style="shape=process;whiteSpace=wrap;html=1;backgroundOutline=1;" vertex="1" parent="1">
          <mxGeometry x="620" y="90" width="120" height="60" as="geometry" />
        </mxCell>
        <mxCell id="qdHmDOOyC_FSIgch7ug1-11" value="Cancel Facilities - CAMS &amp;amp; RPS Systems" style="shape=process;whiteSpace=wrap;html=1;backgroundOutline=1;" vertex="1" parent="1">
          <mxGeometry x="620" y="170" width="120" height="60" as="geometry" />
        </mxCell>
        <mxCell id="qdHmDOOyC_FSIgch7ug1-12" value="Recovery Managerment Systems" style="shape=process;whiteSpace=wrap;html=1;backgroundOutline=1;" vertex="1" parent="1">
          <mxGeometry x="620" y="250" width="120" height="60" as="geometry" />
        </mxCell>
        <mxCell id="qdHmDOOyC_FSIgch7ug1-13" value="Letters &amp;amp; SMS" style="shape=process;whiteSpace=wrap;html=1;backgroundOutline=1;" vertex="1" parent="1">
          <mxGeometry x="620" y="330" width="120" height="60" as="geometry" />
        </mxCell>
        <mxCell id="qdHmDOOyC_FSIgch7ug1-14" value="OnceCert KPMG Audit Feed" style="shape=process;whiteSpace=wrap;html=1;backgroundOutline=1;" vertex="1" parent="1">
          <mxGeometry x="620" y="410" width="120" height="60" as="geometry" />
        </mxCell>
      </root>
    </mxGraphModel>
  </diagram>
</mxfile>
